<svg xmlns="http://www.w3.org/2000/svg" width="594.0mm" height="372.57142857142856mm" viewBox="0 0 594.0 372.57142857142856">
<rect width="594.0" height="372.57142857142856" fill="#FFFFFF"/>
<defs>
 <pattern id="hz" width="3.0" height="3.0" patternTransform="rotate(45)"
          patternUnits="userSpaceOnUse">
  <rect width="3.0" height="3.0" fill="#F5C400"/>
  <rect width="1.5" height="3.0" fill="#111"/></pattern>
 <pattern id="fire" width="3.0" height="3.0" patternTransform="rotate(45)"
          patternUnits="userSpaceOnUse">
  <rect width="3.0" height="3.0" fill="#fff"/>
  <rect width="1.5" height="3.0" fill="#C8102E"/></pattern>
 <pattern id="wall" width="1.5" height="1.5" patternTransform="rotate(45)"
          patternUnits="userSpaceOnUse">
  <rect width="1.5" height="1.5" fill="#4C4840"/>
  <rect width="0.45" height="1.5" fill="#2A2822"/></pattern>
 <marker id="arw" markerWidth="6" markerHeight="6" refX="5" refY="3"
         orient="auto"><path d="M0,0 L6,3 L0,6 z" fill="#F5C400"/></marker>
</defs>
<text x="30.00" y="16.00" font-size="2.8" font-family="Helvetica, Arial, sans-serif" font-weight="700" fill="#6E6A5E" letter-spacing="1.6" text-anchor="start">HONEYGUIDE GHANA LTD   WH2</text>
<text x="30.00" y="30.00" font-size="8.0" font-family="Helvetica, Arial, sans-serif" font-weight="700" fill="#141310" letter-spacing="0.0" text-anchor="start">SCENARIO 1  ·  OPENING</text>
<text x="30.00" y="38.00" font-size="3.4" font-family="Helvetica, Arial, sans-serif" font-weight="400" fill="#6E6A5E" letter-spacing="0.0" text-anchor="start">Five Flagships loading with both doors open, four waiting in the runway</text>
<text x="564.00" y="16.00" font-size="2.5" font-family="Helvetica, Arial, sans-serif" font-weight="400" fill="#6E6A5E" letter-spacing="0.0" text-anchor="end">v0.7.0   9 Sep 2026   1:84 at A2</text>
<polygon points="253.82,162.95 533.22,162.95 560.37,49.62 253.82,49.62 253.82,162.95" fill="url(#wall)"/>
<polygon points="256.20,160.57 531.44,160.57 558.58,52.00 256.20,52.00 256.20,160.57" fill="#8C877B"/>
<line x1="291.91" y1="160.57" x2="291.91" y2="52.00" stroke="#807B70" stroke-width="0.655"/>
<line x1="327.63" y1="160.57" x2="327.63" y2="52.00" stroke="#807B70" stroke-width="0.655"/>
<line x1="363.34" y1="160.57" x2="363.34" y2="52.00" stroke="#807B70" stroke-width="0.655"/>
<line x1="399.06" y1="160.57" x2="399.06" y2="52.00" stroke="#807B70" stroke-width="0.655"/>
<line x1="434.77" y1="160.57" x2="434.77" y2="52.00" stroke="#807B70" stroke-width="0.655"/>
<line x1="470.49" y1="160.57" x2="470.49" y2="52.00" stroke="#807B70" stroke-width="0.655"/>
<line x1="506.20" y1="160.57" x2="506.20" y2="52.00" stroke="#807B70" stroke-width="0.655"/>
<line x1="541.91" y1="118.67" x2="541.91" y2="52.00" stroke="#807B70" stroke-width="0.655"/>
<line x1="256.20" y1="124.86" x2="540.37" y2="124.86" stroke="#807B70" stroke-width="0.655"/>
<line x1="256.20" y1="89.14" x2="549.30" y2="89.14" stroke="#807B70" stroke-width="0.655"/>
<line x1="256.20" y1="53.43" x2="558.22" y2="53.43" stroke="#807B70" stroke-width="0.655"/>
<polygon points="157.39,114.14 157.39,48.67 28.82,48.67 28.82,114.14 157.39,114.14" fill="#8F8B80" opacity="0.55" stroke="#6E6A5F" stroke-width="0.25" stroke-dasharray="2 1.6"/>
<text x="93.10" y="121.29" font-size="2.6" font-family="Helvetica, Arial, sans-serif" font-weight="600" fill="#6E6A5E" letter-spacing="0.0" text-anchor="middle">RUNWAY - OUTSIDE. NO YARD BOUNDARY IN THE SITE MODEL</text>
<polygon points="256.44,102.24 256.44,69.50 253.58,69.50 253.58,102.24 256.44,102.24" fill="#EDEBE5" stroke="#3A3730" stroke-width="0.2"/>
<text x="245.49" y="61.76" font-size="2.5" font-family="Helvetica, Arial, sans-serif" font-weight="600" fill="#141310" letter-spacing="0.0" text-anchor="middle" transform="rotate(-90 245.49 61.76)">GATE 2750 x 3500 CLEAR</text>
<polygon points="343.82,160.57 343.82,118.19 256.20,118.19 256.20,160.57 343.82,160.57" fill="#6E6A5F" stroke="#3A3730" stroke-width="0.2"/>
<polygon points="351.08,160.57 351.08,131.54 343.09,131.54 343.09,160.57 351.08,160.57" fill="#9A958A" stroke="#3A3730" stroke-width="0.2"/>
<polygon points="359.06,159.25 359.06,151.59 351.51,151.59 351.51,159.25 359.06,159.25" fill="#9A958A" stroke="#3A3730" stroke-width="0.2"/>
<polygon points="355.72,73.45 355.72,52.02 303.34,52.02 303.34,73.45 355.72,73.45" fill="#1F6FB2" opacity="0.10"/>
<polygon points="355.72,73.45 355.72,52.02 303.34,52.02 303.34,73.45 355.72,73.45" fill="none" stroke="#1F6FB2" stroke-width="1.1904761904761905"/>
<polygon points="383.08,62.24 383.08,52.60 361.89,52.60 361.89,62.24 383.08,62.24" fill="#9A958A" stroke="#3A3730" stroke-width="0.2"/>
<polygon points="406.82,62.48 406.82,52.60 383.60,52.60 383.60,62.48 406.82,62.48" fill="#9A958A" stroke="#3A3730" stroke-width="0.2"/>
<polygon points="430.48,62.48 430.48,52.60 407.27,52.60 407.27,62.48 430.48,62.48" fill="#9A958A" stroke="#3A3730" stroke-width="0.2"/>
<polygon points="498.96,64.02 498.96,52.00 458.41,52.00 458.41,64.02 498.96,64.02" fill="#9A958A" stroke="#3A3730" stroke-width="0.2"/>
<polygon points="350.96,118.19 350.96,160.57 343.82,160.57 343.82,118.19 350.96,118.19" fill="#2E9B5B" opacity="0.12"/>
<polygon points="256.20,118.19 256.20,111.05 343.82,111.05 343.82,118.19 256.20,118.19" fill="#2E9B5B" opacity="0.12"/>
<polygon points="358.22,131.54 358.22,160.57 351.08,160.57 351.08,131.54 358.22,131.54" fill="#2E9B5B" opacity="0.12"/>
<polygon points="343.09,131.54 343.09,124.40 351.08,124.40 351.08,131.54 343.09,131.54" fill="#2E9B5B" opacity="0.12"/>
<polygon points="366.21,151.59 366.21,159.25 359.06,159.25 359.06,151.59 366.21,151.59" fill="#2E9B5B" opacity="0.12"/>
<polygon points="351.51,151.59 351.51,144.44 359.06,144.44 359.06,151.59 351.51,151.59" fill="#2E9B5B" opacity="0.12"/>
<polygon points="383.08,69.38 383.08,62.24 361.89,62.24 361.89,69.38 383.08,69.38" fill="#2E9B5B" opacity="0.12"/>
<polygon points="406.82,69.62 406.82,62.48 383.60,62.48 383.60,69.62 406.82,69.62" fill="#2E9B5B" opacity="0.12"/>
<polygon points="430.48,69.62 430.48,62.48 407.27,62.48 407.27,69.62 430.48,69.62" fill="#2E9B5B" opacity="0.12"/>
<polygon points="498.96,71.17 498.96,64.02 458.41,64.02 458.41,71.17 498.96,71.17" fill="#2E9B5B" opacity="0.12"/>
<text x="300.01" y="139.38" font-size="2.5" font-family="Helvetica, Arial, sans-serif" font-weight="600" fill="#F2F0EA" letter-spacing="0.0" text-anchor="middle">OFFICE</text>
<text x="347.08" y="146.06" font-size="2.5" font-family="Helvetica, Arial, sans-serif" font-weight="600" fill="#F2F0EA" letter-spacing="0.0" text-anchor="middle" transform="rotate(-90 347.08 146.06)">SHOP</text>
<text x="355.28" y="147.24" font-size="2.5" font-family="Helvetica, Arial, sans-serif" font-weight="600" fill="#141310" letter-spacing="0.0" text-anchor="middle">SHOP KIT</text>
<text x="329.53" y="65.21" font-size="2.5" font-family="Helvetica, Arial, sans-serif" font-weight="600" fill="#1F6FB2" letter-spacing="0.0" text-anchor="middle">CHECK-IN / CHECK-OUT</text>
<text x="372.49" y="57.95" font-size="2.5" font-family="Helvetica, Arial, sans-serif" font-weight="600" fill="#2C2A24" letter-spacing="0.0" text-anchor="middle">FRIDGE 1</text>
<text x="395.20" y="57.95" font-size="2.5" font-family="Helvetica, Arial, sans-serif" font-weight="600" fill="#2C2A24" letter-spacing="0.0" text-anchor="middle">FRIDGE 2</text>
<text x="418.87" y="57.95" font-size="2.5" font-family="Helvetica, Arial, sans-serif" font-weight="600" fill="#2C2A24" letter-spacing="0.0" text-anchor="middle">FRIDGE 3</text>
<text x="478.68" y="58.67" font-size="2.5" font-family="Helvetica, Arial, sans-serif" font-weight="600" fill="#2C2A24" letter-spacing="0.0" text-anchor="middle">FOOD STORAGE CRATES</text>
<text x="329.53" y="57.95" font-size="2.2" font-family="Helvetica, Arial, sans-serif" font-weight="600" fill="#1F6FB2" letter-spacing="0.0" text-anchor="middle">4400 x 1800 ZONE, MARKED ON THE SLAB</text>
<polygon points="347.27,160.57 347.27,149.86 314.53,149.86 314.53,160.57 347.27,160.57" fill="url(#hz)" opacity="0.95"/>
<polygon points="450.25,62.95 450.25,52.60 435.96,52.60 435.96,62.95 450.25,62.95" fill="url(#fire)" opacity="0.95"/>
<text x="443.10" y="65.57" font-size="2.2" font-family="Helvetica, Arial, sans-serif" font-weight="600" fill="#C8102E" letter-spacing="0.0" text-anchor="middle">FIRE POINT</text>
<polygon points="478.82,158.79 478.82,148.55 464.53,148.55 464.53,158.79 478.82,158.79" fill="url(#fire)" opacity="0.95"/>
<text x="471.68" y="145.69" font-size="2.2" font-family="Helvetica, Arial, sans-serif" font-weight="600" fill="#C8102E" letter-spacing="0.0" text-anchor="middle">PANEL</text>
<line x1="358.58" y1="99.86" x2="541.91" y2="99.86" stroke="#F5C400" stroke-width="1.190"/>
<text x="446.68" y="96.29" font-size="2.8" font-family="Helvetica, Arial, sans-serif" font-weight="600" fill="#F5C400" letter-spacing="0.0" text-anchor="middle">DRIVE AISLE - KEEP CLEAR</text>
<polygon points="411.60,137.37 371.90,98.01 353.06,117.01 392.75,156.37 411.60,137.37" fill="none" stroke="#FFFFFF" stroke-width="0.8928571428571429"/>
<polygon points="379.45,159.00 362.74,142.43 374.22,130.85 390.93,147.42 379.45,159.00" fill="url(#hz)" opacity="0.92"/>
<polygon points="402.63,135.62 385.93,119.05 397.41,107.48 414.11,124.04 402.63,135.62" fill="url(#hz)" opacity="0.92"/>
<line x1="357.84" y1="114.47" x2="369.40" y2="102.81" stroke="#F5C400" stroke-width="2.500"/>
<line x1="413.08" y1="157.68" x2="366.37" y2="111.36" stroke="#F5C400" stroke-width="1.131"/>
<polygon points="453.19,137.37 413.50,98.01 394.65,117.01 434.35,156.37 453.19,137.37" fill="none" stroke="#FFFFFF" stroke-width="0.8928571428571429"/>
<polygon points="421.05,159.00 404.34,142.43 415.82,130.85 432.53,147.42 421.05,159.00" fill="url(#hz)" opacity="0.92"/>
<polygon points="444.23,135.62 427.52,119.05 439.00,107.48 455.71,124.04 444.23,135.62" fill="url(#hz)" opacity="0.92"/>
<line x1="399.44" y1="114.47" x2="411.00" y2="102.81" stroke="#F5C400" stroke-width="2.500"/>
<line x1="454.67" y1="157.68" x2="407.97" y2="111.36" stroke="#F5C400" stroke-width="1.131"/>
<polygon points="494.90,137.37 455.21,98.01 436.36,117.01 476.06,156.37 494.90,137.37" fill="none" stroke="#FFFFFF" stroke-width="0.8928571428571429"/>
<polygon points="462.75,159.00 446.05,142.43 457.53,130.85 474.24,147.42 462.75,159.00" fill="url(#hz)" opacity="0.92"/>
<polygon points="485.94,135.62 469.23,119.05 480.71,107.48 497.42,124.04 485.94,135.62" fill="url(#hz)" opacity="0.92"/>
<line x1="441.15" y1="114.47" x2="452.71" y2="102.81" stroke="#F5C400" stroke-width="2.500"/>
<line x1="496.38" y1="157.68" x2="449.67" y2="111.36" stroke="#F5C400" stroke-width="1.131"/>
<polygon points="536.46,137.37 496.77,98.01 477.92,117.01 517.62,156.37 536.46,137.37" fill="none" stroke="#FFFFFF" stroke-width="0.8928571428571429"/>
<polygon points="504.32,159.00 487.61,142.43 499.09,130.85 515.80,147.42 504.32,159.00" fill="url(#hz)" opacity="0.92"/>
<polygon points="527.50,135.62 510.79,119.05 522.27,107.48 538.98,124.04 527.50,135.62" fill="url(#hz)" opacity="0.92"/>
<line x1="482.71" y1="114.47" x2="494.27" y2="102.81" stroke="#F5C400" stroke-width="2.500"/>
<line x1="537.94" y1="157.68" x2="491.24" y2="111.36" stroke="#F5C400" stroke-width="1.131"/>
<polygon points="549.25,66.00 493.35,66.08 493.39,92.84 549.29,92.76 549.25,66.00" fill="none" stroke="#FFFFFF" stroke-width="0.8928571428571429"/>
<polygon points="541.71,104.01 518.18,104.04 518.16,87.74 541.69,87.70 541.71,104.01" fill="url(#hz)" opacity="0.92"/>
<polygon points="541.67,71.08 518.14,71.12 518.11,54.81 541.64,54.78 541.67,71.08" fill="url(#hz)" opacity="0.92"/>
<line x1="494.99" y1="87.67" x2="494.97" y2="71.25" stroke="#F5C400" stroke-width="2.500"/>
<line x1="564.63" y1="79.36" x2="498.85" y2="79.45" stroke="#F5C400" stroke-width="1.131"/>
<polygon points="269.07,67.85 296.14,67.85 296.14,59.44 269.07,59.44 269.07,67.85" fill="none" stroke="#FFFFFF" stroke-width="0.8928571428571429"/>

<line x1="294.53" y1="61.67" x2="294.53" y2="65.62" stroke="#F5C400" stroke-width="2.500"/>
<polygon points="269.07,61.04 296.14,61.04 296.14,52.62 269.07,52.62 269.07,61.04" fill="none" stroke="#FFFFFF" stroke-width="0.8928571428571429"/>

<line x1="294.53" y1="54.86" x2="294.53" y2="58.80" stroke="#F5C400" stroke-width="2.500"/>
<polygon points="125.75,107.27 125.67,51.37 98.91,51.41 98.99,107.31 125.75,107.27" fill="none" stroke="#FFFFFF" stroke-width="0.8928571428571429"/>

<line x1="104.09" y1="53.01" x2="120.50" y2="52.99" stroke="#F5C400" stroke-width="2.500"/>
<polygon points="98.30,107.27 98.22,51.37 71.46,51.41 71.54,107.31 98.30,107.27" fill="none" stroke="#FFFFFF" stroke-width="0.8928571428571429"/>

<line x1="76.63" y1="53.01" x2="93.05" y2="52.99" stroke="#F5C400" stroke-width="2.500"/>
<polygon points="70.73,107.27 70.65,51.37 43.89,51.41 43.97,107.31 70.73,107.27" fill="none" stroke="#FFFFFF" stroke-width="0.8928571428571429"/>

<line x1="49.06" y1="53.01" x2="65.48" y2="52.99" stroke="#F5C400" stroke-width="2.500"/>
<polygon points="147.03,104.06 146.96,51.35 125.90,51.38 125.97,104.09 147.03,104.06" fill="none" stroke="#FFFFFF" stroke-width="0.8928571428571429"/>

<line x1="130.16" y1="52.98" x2="142.70" y2="52.97" stroke="#F5C400" stroke-width="2.500"/>
<polygon points="392.74,154.52 409.74,137.38 375.76,103.68 373.75,105.71 372.25,104.22 365.09,106.74 361.73,110.12 359.28,117.31 360.78,118.79 392.74,154.52" fill="#D9D5CB" stroke="#101010" stroke-width="0.2" opacity="0.94"/>
<polygon points="409.74,137.38 375.76,103.68 358.76,120.82 392.74,154.52 409.74,137.38" fill="#C4BFB3" stroke="#101010" stroke-width="0.16"/>
<polygon points="379.45,159.00 362.74,142.43 374.22,130.85 390.93,147.42 379.45,159.00" fill="none" stroke="#101010" stroke-width="0.16" stroke-dasharray="1.1 0.8"/>
<polygon points="402.63,135.62 385.93,119.05 397.41,107.48 414.11,124.04 402.63,135.62" fill="none" stroke="#101010" stroke-width="0.16" stroke-dasharray="1.1 0.8"/>
<polygon points="365.44,110.44 367.15,117.50 372.52,112.09" fill="#2B2924" opacity="0.85"/>
<polygon points="434.34,154.52 451.34,137.38 417.36,103.68 415.35,105.71 413.85,104.22 406.68,106.74 403.33,110.12 400.87,117.31 402.37,118.79 434.34,154.52" fill="#D9D5CB" stroke="#101010" stroke-width="0.2" opacity="0.94"/>
<polygon points="451.34,137.38 417.36,103.68 400.36,120.82 434.34,154.52 451.34,137.38" fill="#C4BFB3" stroke="#101010" stroke-width="0.16"/>
<polygon points="421.05,159.00 404.34,142.43 415.82,130.85 432.53,147.42 421.05,159.00" fill="none" stroke="#101010" stroke-width="0.16" stroke-dasharray="1.1 0.8"/>
<polygon points="444.23,135.62 427.52,119.05 439.00,107.48 455.71,124.04 444.23,135.62" fill="none" stroke="#101010" stroke-width="0.16" stroke-dasharray="1.1 0.8"/>
<polygon points="407.04,110.44 408.75,117.50 414.11,112.09" fill="#2B2924" opacity="0.85"/>
<polygon points="476.05,154.52 493.05,137.38 459.07,103.68 457.06,105.71 455.56,104.22 448.39,106.74 445.04,110.12 442.58,117.31 444.08,118.79 476.05,154.52" fill="#D9D5CB" stroke="#101010" stroke-width="0.2" opacity="0.94"/>
<polygon points="493.05,137.38 459.07,103.68 442.07,120.82 476.05,154.52 493.05,137.38" fill="#C4BFB3" stroke="#101010" stroke-width="0.16"/>
<polygon points="462.75,159.00 446.05,142.43 457.53,130.85 474.24,147.42 462.75,159.00" fill="none" stroke="#101010" stroke-width="0.16" stroke-dasharray="1.1 0.8"/>
<polygon points="485.94,135.62 469.23,119.05 480.71,107.48 497.42,124.04 485.94,135.62" fill="none" stroke="#101010" stroke-width="0.16" stroke-dasharray="1.1 0.8"/>
<polygon points="448.74,110.44 450.46,117.50 455.82,112.09" fill="#2B2924" opacity="0.85"/>
<polygon points="517.61,154.52 534.61,137.38 500.63,103.68 498.62,105.71 497.12,104.22 489.95,106.74 486.60,110.12 484.14,117.31 485.64,118.79 517.61,154.52" fill="#D9D5CB" stroke="#101010" stroke-width="0.2" opacity="0.94"/>
<polygon points="534.61,137.38 500.63,103.68 483.63,120.82 517.61,154.52 534.61,137.38" fill="#C4BFB3" stroke="#101010" stroke-width="0.16"/>
<polygon points="504.32,159.00 487.61,142.43 499.09,130.85 515.80,147.42 504.32,159.00" fill="none" stroke="#101010" stroke-width="0.16" stroke-dasharray="1.1 0.8"/>
<polygon points="527.50,135.62 510.79,119.05 522.27,107.48 538.98,124.04 527.50,135.62" fill="none" stroke="#101010" stroke-width="0.16" stroke-dasharray="1.1 0.8"/>
<polygon points="490.31,110.44 492.02,117.50 497.38,112.09" fill="#2B2924" opacity="0.85"/>
<polygon points="547.98,91.46 547.95,67.31 500.09,67.38 500.09,70.24 497.98,70.24 494.68,77.08 494.68,81.84 498.01,88.67 500.12,88.67 547.98,91.46" fill="#D9D5CB" stroke="#101010" stroke-width="0.2" opacity="0.94"/>
<polygon points="547.95,67.31 500.09,67.38 500.12,91.52 547.98,91.46 547.95,67.31" fill="#C4BFB3" stroke="#101010" stroke-width="0.16"/>
<polygon points="541.71,104.01 518.18,104.04 518.16,87.74 541.69,87.70 541.71,104.01" fill="none" stroke="#101010" stroke-width="0.16" stroke-dasharray="1.1 0.8"/>
<polygon points="541.67,71.08 518.14,71.12 518.11,54.81 541.64,54.78 541.67,71.08" fill="none" stroke="#101010" stroke-width="0.16" stroke-dasharray="1.1 0.8"/>
<polygon points="497.54,79.46 503.73,83.26 503.72,75.64" fill="#2B2924" opacity="0.85"/>
<polygon points="270.38,66.55 294.83,66.55 294.83,60.75 270.38,60.75 270.38,66.55" fill="#D9D5CB" stroke="#101010" stroke-width="0.2" opacity="0.94"/>


<polygon points="293.40,63.65 290.31,61.74 290.31,65.55" fill="#2B2924" opacity="0.85"/>
<polygon points="270.38,59.73 294.83,59.73 294.83,53.93 270.38,53.93 270.38,59.73" fill="#D9D5CB" stroke="#101010" stroke-width="0.2" opacity="0.94"/>


<polygon points="293.40,56.83 290.31,54.93 290.31,58.74" fill="#2B2924" opacity="0.85"/>
<polygon points="100.30,106.00 124.44,105.96 124.37,58.11 121.52,58.11 121.51,56.00 114.68,52.70 109.91,52.70 103.09,56.03 103.09,58.14 100.30,106.00" fill="#D9D5CB" stroke="#101010" stroke-width="0.2" opacity="0.94"/>
<polygon points="124.44,105.96 124.37,58.11 100.23,58.14 100.30,106.00 124.44,105.96" fill="#C4BFB3" stroke="#101010" stroke-width="0.16"/>

<polygon points="112.30,55.56 108.50,61.75 116.12,61.74" fill="#2B2924" opacity="0.85"/>
<polygon points="72.84,106.00 96.99,105.96 96.92,58.11 94.06,58.11 94.06,56.00 87.22,52.70 82.46,52.70 75.63,56.03 75.63,58.14 72.84,106.00" fill="#D9D5CB" stroke="#101010" stroke-width="0.2" opacity="0.94"/>
<polygon points="96.99,105.96 96.92,58.11 72.78,58.14 72.84,106.00 96.99,105.96" fill="#C4BFB3" stroke="#101010" stroke-width="0.16"/>

<polygon points="84.84,55.56 81.04,61.75 88.66,61.74" fill="#2B2924" opacity="0.85"/>
<polygon points="45.28,106.00 69.42,105.96 69.35,58.11 66.49,58.11 66.49,56.00 59.65,52.70 54.89,52.70 48.06,56.03 48.07,58.14 45.28,106.00" fill="#D9D5CB" stroke="#101010" stroke-width="0.2" opacity="0.94"/>
<polygon points="69.42,105.96 69.35,58.11 45.21,58.14 45.28,106.00 69.42,105.96" fill="#C4BFB3" stroke="#101010" stroke-width="0.16"/>

<polygon points="57.28,55.56 53.48,61.75 61.09,61.74" fill="#2B2924" opacity="0.85"/>
<polygon points="145.72,102.75 145.65,52.66 127.21,52.69 127.28,102.77 145.72,102.75" fill="#D9D5CB" stroke="#101010" stroke-width="0.2" opacity="0.94"/>


<polygon points="136.43,54.10 134.53,57.20 138.34,57.20" fill="#2B2924" opacity="0.85"/>
<polygon points="390.48,133.34 390.48,122.14 377.14,122.14 377.14,133.34 390.48,133.34" fill="#1B1A16" opacity="0.6"/><text x="383.81" y="125.39" font-size="6.2" font-family="Helvetica, Arial, sans-serif" font-weight="700" fill="#FFFFFF" letter-spacing="0.0" text-anchor="middle">D1</text>
<polygon points="432.07,133.34 432.07,122.14 418.74,122.14 418.74,133.34 432.07,133.34" fill="#1B1A16" opacity="0.6"/><text x="425.41" y="125.39" font-size="6.2" font-family="Helvetica, Arial, sans-serif" font-weight="700" fill="#FFFFFF" letter-spacing="0.0" text-anchor="middle">D2</text>
<polygon points="473.78,133.34 473.78,122.14 460.45,122.14 460.45,133.34 473.78,133.34" fill="#1B1A16" opacity="0.6"/><text x="467.12" y="125.39" font-size="6.2" font-family="Helvetica, Arial, sans-serif" font-weight="700" fill="#FFFFFF" letter-spacing="0.0" text-anchor="middle">D3</text>
<polygon points="515.34,133.34 515.34,122.14 502.01,122.14 502.01,133.34 515.34,133.34" fill="#1B1A16" opacity="0.6"/><text x="508.68" y="125.39" font-size="6.2" font-family="Helvetica, Arial, sans-serif" font-weight="700" fill="#FFFFFF" letter-spacing="0.0" text-anchor="middle">D4</text>
<polygon points="529.43,84.36 529.43,73.17 516.10,73.17 516.10,84.36 529.43,84.36" fill="#1B1A16" opacity="0.6"/><text x="522.76" y="76.42" font-size="6.2" font-family="Helvetica, Arial, sans-serif" font-weight="700" fill="#FFFFFF" letter-spacing="0.0" text-anchor="middle">N1</text>
<polygon points="287.13,66.44 287.13,60.85 278.08,60.85 278.08,66.44 287.13,66.44" fill="#1B1A16" opacity="0.6"/><text x="282.60" y="62.47" font-size="3.4" font-family="Helvetica, Arial, sans-serif" font-weight="700" fill="#FFFFFF" letter-spacing="0.0" text-anchor="middle">HGF1</text>
<polygon points="287.13,59.63 287.13,54.03 278.08,54.03 278.08,59.63 287.13,59.63" fill="#1B1A16" opacity="0.6"/><text x="282.60" y="55.66" font-size="3.4" font-family="Helvetica, Arial, sans-serif" font-weight="700" fill="#FFFFFF" letter-spacing="0.0" text-anchor="middle">HGF2</text>
<polygon points="119.65,86.38 119.65,75.19 106.32,75.19 106.32,86.38 119.65,86.38" fill="#1B1A16" opacity="0.6"/><text x="112.99" y="78.43" font-size="6.2" font-family="Helvetica, Arial, sans-serif" font-weight="700" fill="#FFFFFF" letter-spacing="0.0" text-anchor="middle">N2</text>
<polygon points="92.20,86.38 92.20,75.19 78.87,75.19 78.87,86.38 92.20,86.38" fill="#1B1A16" opacity="0.6"/><text x="85.53" y="78.43" font-size="6.2" font-family="Helvetica, Arial, sans-serif" font-weight="700" fill="#FFFFFF" letter-spacing="0.0" text-anchor="middle">N3</text>
<polygon points="64.63,86.38 64.63,75.19 51.30,75.19 51.30,86.38 64.63,86.38" fill="#1B1A16" opacity="0.6"/><text x="57.96" y="78.43" font-size="6.2" font-family="Helvetica, Arial, sans-serif" font-weight="700" fill="#FFFFFF" letter-spacing="0.0" text-anchor="middle">N4</text>
<polygon points="140.99,80.52 140.99,74.92 131.94,74.92 131.94,80.52 140.99,80.52" fill="#1B1A16" opacity="0.6"/><text x="136.47" y="76.54" font-size="3.4" font-family="Helvetica, Arial, sans-serif" font-weight="700" fill="#FFFFFF" letter-spacing="0.0" text-anchor="middle">HG3</text>
<line x1="256.20" y1="46.00" x2="558.58" y2="46.00" stroke="#141310" stroke-width="0.17"/><line x1="256.20" y1="44.70" x2="256.20" y2="47.30" stroke="#141310" stroke-width="0.17"/><line x1="558.58" y1="44.70" x2="558.58" y2="47.30" stroke="#141310" stroke-width="0.17"/><text x="407.39" y="45.00" font-size="2.5" font-family="Helvetica, Arial, sans-serif" fill="#141310" text-anchor="middle">25400 clear at the north wall</text>
<line x1="256.20" y1="168.57" x2="531.44" y2="168.57" stroke="#141310" stroke-width="0.17"/><line x1="256.20" y1="167.27" x2="256.20" y2="169.87" stroke="#141310" stroke-width="0.17"/><line x1="531.44" y1="167.27" x2="531.44" y2="169.87" stroke="#141310" stroke-width="0.17"/><text x="393.82" y="167.57" font-size="2.5" font-family="Helvetica, Arial, sans-serif" fill="#141310" text-anchor="middle">23120 clear at the south wall</text>
<line x1="566.58" y1="160.57" x2="566.58" y2="52.00" stroke="#141310" stroke-width="0.17"/><line x1="565.28" y1="160.57" x2="567.88" y2="160.57" stroke="#141310" stroke-width="0.17"/><line x1="565.28" y1="52.00" x2="567.88" y2="52.00" stroke="#141310" stroke-width="0.17"/><text x="565.48" y="106.29" font-size="2.5" font-family="Helvetica, Arial, sans-serif" fill="#141310" text-anchor="middle" transform="rotate(-90 565.48 106.29)">9120</text>
<g transform="translate(544.30 58.19)"><path d="M0,-5.5 L2.8,3.6 L0,1.8 L-2.8,3.6 Z" fill="#141310"/><text y="8" font-size="2.8" font-family="Helvetica, Arial" text-anchor="middle" fill="#141310">N</text></g>
<line x1="30.0" y1="178.57142857142856" x2="564.0" y2="178.57142857142856" stroke="#DCD8CE" stroke-width="0.5"/>
<text x="30.00" y="190.57" font-size="2.4" font-family="Helvetica, Arial, sans-serif" font-weight="400" fill="#6E6A5E" letter-spacing="0.7" text-anchor="start">FLAGSHIPS INSIDE</text>
<text x="122.00" y="190.57" font-size="2.9" font-family="Helvetica, Arial, sans-serif" font-weight="700" fill="#141310" letter-spacing="0.0" text-anchor="end">5</text>
<text x="30.00" y="197.97" font-size="2.4" font-family="Helvetica, Arial, sans-serif" font-weight="400" fill="#6E6A5E" letter-spacing="0.7" text-anchor="start">ALSO INSIDE</text>
<text x="122.00" y="197.97" font-size="2.9" font-family="Helvetica, Arial, sans-serif" font-weight="700" fill="#141310" letter-spacing="0.0" text-anchor="end">two HGF bikes</text>
<text x="30.00" y="205.37" font-size="2.4" font-family="Helvetica, Arial, sans-serif" font-weight="400" fill="#6E6A5E" letter-spacing="0.7" text-anchor="start">WAITING IN THE RUNWAY</text>
<text x="122.00" y="205.37" font-size="2.9" font-family="Helvetica, Arial, sans-serif" font-weight="700" fill="#141310" letter-spacing="0.0" text-anchor="end">HG3 and three Flagships</text>
<text x="30.00" y="212.77" font-size="2.4" font-family="Helvetica, Arial, sans-serif" font-weight="400" fill="#6E6A5E" letter-spacing="0.7" text-anchor="start">DOORS OPEN IN PLACE</text>
<text x="122.00" y="212.77" font-size="2.9" font-family="Helvetica, Arial, sans-serif" font-weight="700" fill="#141310" letter-spacing="0.0" text-anchor="end">both, the five Flagships</text>
<text x="30.00" y="220.17" font-size="2.4" font-family="Helvetica, Arial, sans-serif" font-weight="400" fill="#6E6A5E" letter-spacing="0.7" text-anchor="start">DIAGONAL PITCH</text>
<text x="122.00" y="220.17" font-size="2.9" font-family="Helvetica, Arial, sans-serif" font-weight="700" fill="#141310" letter-spacing="0.0" text-anchor="end">3494 mm at 45.2 deg</text>
<text x="30.00" y="227.57" font-size="2.4" font-family="Helvetica, Arial, sans-serif" font-weight="400" fill="#6E6A5E" letter-spacing="0.7" text-anchor="start">WORKING CLEARANCE</text>
<text x="122.00" y="227.57" font-size="2.9" font-family="Helvetica, Arial, sans-serif" font-weight="700" fill="#141310" letter-spacing="0.0" text-anchor="end">600 mm, all of it</text>
<text x="30.00" y="234.97" font-size="2.4" font-family="Helvetica, Arial, sans-serif" font-weight="400" fill="#6E6A5E" letter-spacing="0.7" text-anchor="start">DRIVE AISLE</text>
<text x="122.00" y="234.97" font-size="2.9" font-family="Helvetica, Arial, sans-serif" font-weight="700" fill="#141310" letter-spacing="0.0" text-anchor="end">2800 mm</text>
<text x="30.00" y="242.37" font-size="2.4" font-family="Helvetica, Arial, sans-serif" font-weight="400" fill="#6E6A5E" letter-spacing="0.7" text-anchor="start">ANY ORDER, NOBODY MOVES</text>
<text x="122.00" y="242.37" font-size="2.9" font-family="Helvetica, Arial, sans-serif" font-weight="700" fill="#141310" letter-spacing="0.0" text-anchor="end">yes, all seven</text>
<text x="30.00" y="249.77" font-size="2.4" font-family="Helvetica, Arial, sans-serif" font-weight="400" fill="#6E6A5E" letter-spacing="0.7" text-anchor="start">TIGHTEST POINT DRIVING OUT</text>
<text x="122.00" y="249.77" font-size="2.9" font-family="Helvetica, Arial, sans-serif" font-weight="700" fill="#141310" letter-spacing="0.0" text-anchor="end">60 mm</text>
<text x="142.00" y="190.57" font-size="2.9" font-family="Helvetica, Arial, sans-serif" font-weight="700" fill="#141310" letter-spacing="0.8" text-anchor="start">FLOOR MARKING SCHEDULE</text>
<rect x="142.0" y="195.17142857142855" width="9" height="4.6" fill="url(#hz)"/>
<text x="155.00" y="198.57" font-size="2.8" font-family="Helvetica, Arial, sans-serif" font-weight="600" fill="#141310" letter-spacing="0.0" text-anchor="start">Black / yellow hatch</text>
<text x="155.00" y="202.27" font-size="2.5" font-family="Helvetica, Arial, sans-serif" font-weight="400" fill="#6E6A5E" letter-spacing="0.0" text-anchor="start">Door swing. Keep clear. 1988 mm headroom.</text>
<rect x="142.0" y="204.57142857142856" width="9" height="4.6" fill="#F5C400" stroke="#BBB" stroke-width="0.2"/>
<text x="155.00" y="207.97" font-size="2.8" font-family="Helvetica, Arial, sans-serif" font-weight="600" fill="#141310" letter-spacing="0.0" text-anchor="start">Yellow 100 mm</text>
<text x="155.00" y="211.67" font-size="2.5" font-family="Helvetica, Arial, sans-serif" font-weight="400" fill="#6E6A5E" letter-spacing="0.0" text-anchor="start">Lead-in line and traffic lane edge.</text>
<rect x="142.0" y="213.97142857142856" width="9" height="4.6" fill="#FFFFFF" stroke="#BBB" stroke-width="0.2"/>
<text x="155.00" y="217.37" font-size="2.8" font-family="Helvetica, Arial, sans-serif" font-weight="600" fill="#141310" letter-spacing="0.0" text-anchor="start">White 75 mm</text>
<text x="155.00" y="221.07" font-size="2.5" font-family="Helvetica, Arial, sans-serif" font-weight="400" fill="#6E6A5E" letter-spacing="0.0" text-anchor="start">Vehicle stand outline and stand number.</text>
<rect x="142.0" y="223.37142857142857" width="9" height="4.6" fill="#1F6FB2" stroke="#BBB" stroke-width="0.2"/>
<text x="155.00" y="226.77" font-size="2.8" font-family="Helvetica, Arial, sans-serif" font-weight="600" fill="#141310" letter-spacing="0.0" text-anchor="start">Blue 100 mm</text>
<text x="155.00" y="230.47" font-size="2.5" font-family="Helvetica, Arial, sans-serif" font-weight="400" fill="#6E6A5E" letter-spacing="0.0" text-anchor="start">Weighing and loading zone, cold chain.</text>
<rect x="142.0" y="232.77142857142857" width="9" height="4.6" fill="#2E9B5B" opacity="0.25" stroke="#CCC" stroke-width="0.2"/>
<text x="155.00" y="236.17" font-size="2.8" font-family="Helvetica, Arial, sans-serif" font-weight="600" fill="#141310" letter-spacing="0.0" text-anchor="start">Green tint</text>
<text x="155.00" y="239.87" font-size="2.5" font-family="Helvetica, Arial, sans-serif" font-weight="400" fill="#6E6A5E" letter-spacing="0.0" text-anchor="start">600 mm working strip at every fitting.</text>
<rect x="142.0" y="242.17142857142858" width="9" height="4.6" fill="url(#fire)"/>
<text x="155.00" y="245.57" font-size="2.8" font-family="Helvetica, Arial, sans-serif" font-weight="600" fill="#141310" letter-spacing="0.0" text-anchor="start">Red / white hatch</text>
<text x="155.00" y="249.27" font-size="2.5" font-family="Helvetica, Arial, sans-serif" font-weight="400" fill="#6E6A5E" letter-spacing="0.0" text-anchor="start">Fire point and electrical panel.</text>
<text x="292.00" y="190.57" font-size="2.9" font-family="Helvetica, Arial, sans-serif" font-weight="700" fill="#141310" letter-spacing="0.8" text-anchor="start">DAILY SEQUENCE</text>
<text x="292.00" y="198.57" font-size="2.6" font-family="Helvetica, Arial, sans-serif" font-weight="400" fill="#141310" letter-spacing="0.0" text-anchor="start">1. Morning. HG3 and three Flagships are</text>
<text x="298.00" y="202.47" font-size="2.6" font-family="Helvetica, Arial, sans-serif" font-weight="400" fill="#6E6A5E" letter-spacing="0.0" text-anchor="start">already out in the runway, doors shut.</text>
<text x="292.00" y="207.77" font-size="2.6" font-family="Helvetica, Arial, sans-serif" font-weight="400" fill="#141310" letter-spacing="0.0" text-anchor="start">2. Five Flagships stay inside to load: four on</text>
<text x="298.00" y="211.67" font-size="2.6" font-family="Helvetica, Arial, sans-serif" font-weight="400" fill="#6E6A5E" letter-spacing="0.0" text-anchor="start">the diagonal and N1 against the east wall.</text>
<text x="292.00" y="216.97" font-size="2.6" font-family="Helvetica, Arial, sans-serif" font-weight="400" fill="#141310" letter-spacing="0.0" text-anchor="start">3. Both doors open on all five, so they load</text>
<text x="298.00" y="220.87" font-size="2.6" font-family="Helvetica, Arial, sans-serif" font-weight="400" fill="#6E6A5E" letter-spacing="0.0" text-anchor="start">together, then go to check-out.</text>
<text x="292.00" y="226.17" font-size="2.6" font-family="Helvetica, Arial, sans-serif" font-weight="400" fill="#141310" letter-spacing="0.0" text-anchor="start">4. Any of the seven inside leaves at any time.</text>
<text x="298.00" y="230.07" font-size="2.6" font-family="Helvetica, Arial, sans-serif" font-weight="400" fill="#6E6A5E" letter-spacing="0.0" text-anchor="start">None of the others has to move.</text>
<text x="292.00" y="235.37" font-size="2.6" font-family="Helvetica, Arial, sans-serif" font-weight="400" fill="#141310" letter-spacing="0.0" text-anchor="start">5. As they clear, the runway four come in,</text>
<text x="298.00" y="239.27" font-size="2.6" font-family="Helvetica, Arial, sans-serif" font-weight="400" fill="#6E6A5E" letter-spacing="0.0" text-anchor="start">load, and follow them out.</text>
<text x="424.00" y="190.57" font-size="2.9" font-family="Helvetica, Arial, sans-serif" font-weight="700" fill="#141310" letter-spacing="0.8" text-anchor="start">NOTES</text>
<text x="424.00" y="198.57" font-size="2.6" font-family="Helvetica, Arial, sans-serif" font-weight="400" fill="#141310" letter-spacing="0.0" text-anchor="start">Five Flagships loading inside, the two HGF</text>
<text x="428.00" y="202.47" font-size="2.6" font-family="Helvetica, Arial, sans-serif" font-weight="400" fill="#6E6A5E" letter-spacing="0.0" text-anchor="start">bikes in the north-west corner, and four</text>
<text x="428.00" y="206.37" font-size="2.6" font-family="Helvetica, Arial, sans-serif" font-weight="400" fill="#6E6A5E" letter-spacing="0.0" text-anchor="start">waiting in the runway. This is Warehouse</text>
<text x="428.00" y="210.27" font-size="2.6" font-family="Helvetica, Arial, sans-serif" font-weight="400" fill="#6E6A5E" letter-spacing="0.0" text-anchor="start">Design V2 exactly as the model has it.</text>
<text x="424.00" y="216.17" font-size="2.6" font-family="Helvetica, Arial, sans-serif" font-weight="400" fill="#141310" letter-spacing="0.0" text-anchor="start">The entry is clear. The diagonal now sits</text>
<text x="428.00" y="220.07" font-size="2.6" font-family="Helvetica, Arial, sans-serif" font-weight="400" fill="#6E6A5E" letter-spacing="0.0" text-anchor="start">at v = 2318, nearly a metre south of the 8</text>
<text x="428.00" y="223.97" font-size="2.6" font-family="Helvetica, Arial, sans-serif" font-weight="400" fill="#6E6A5E" letter-spacing="0.0" text-anchor="start">September row, and nothing stands between</text>
<text x="428.00" y="227.87" font-size="2.6" font-family="Helvetica, Arial, sans-serif" font-weight="400" fill="#6E6A5E" letter-spacing="0.0" text-anchor="start">the gate and the aisle.</text>
<text x="424.00" y="233.77" font-size="2.6" font-family="Helvetica, Arial, sans-serif" font-weight="400" fill="#141310" letter-spacing="0.0" text-anchor="start">Any order, both doors, seven vehicles</text>
<text x="428.00" y="237.67" font-size="2.6" font-family="Helvetica, Arial, sans-serif" font-weight="400" fill="#6E6A5E" letter-spacing="0.0" text-anchor="start">inside. Each was planned out of the gate</text>
<text x="428.00" y="241.57" font-size="2.6" font-family="Helvetica, Arial, sans-serif" font-weight="400" fill="#6E6A5E" letter-spacing="0.0" text-anchor="start">with the other six still standing;</text>
<text x="428.00" y="245.47" font-size="2.6" font-family="Helvetica, Arial, sans-serif" font-weight="400" fill="#6E6A5E" letter-spacing="0.0" text-anchor="start">tightest point on any of those runs is 60</text>
<text x="428.00" y="249.37" font-size="2.6" font-family="Helvetica, Arial, sans-serif" font-weight="400" fill="#6E6A5E" letter-spacing="0.0" text-anchor="start">mm.</text>
<text x="424.00" y="255.27" font-size="2.6" font-family="Helvetica, Arial, sans-serif" font-weight="400" fill="#141310" letter-spacing="0.0" text-anchor="start">One caveat, and it is small: to let D1</text>
<text x="428.00" y="259.17" font-size="2.6" font-family="Helvetica, Arial, sans-serif" font-weight="400" fill="#6E6A5E" letter-spacing="0.0" text-anchor="start">out, D2 shuts its north door; D2 needs</text>
<text x="428.00" y="263.07" font-size="2.6" font-family="Helvetica, Arial, sans-serif" font-weight="400" fill="#6E6A5E" letter-spacing="0.0" text-anchor="start">D3's; D3 needs D4's. D4 and N1 need</text>
<text x="428.00" y="266.97" font-size="2.6" font-family="Helvetica, Arial, sans-serif" font-weight="400" fill="#6E6A5E" letter-spacing="0.0" text-anchor="start">nothing from anybody. That is one door for</text>
<text x="428.00" y="270.87" font-size="2.6" font-family="Helvetica, Arial, sans-serif" font-weight="400" fill="#6E6A5E" letter-spacing="0.0" text-anchor="start">a few seconds, not a shuffle.</text>
<text x="424.00" y="276.77" font-size="2.6" font-family="Helvetica, Arial, sans-serif" font-weight="400" fill="#141310" letter-spacing="0.0" text-anchor="start">The runway four keep their doors shut</text>
<text x="428.00" y="280.67" font-size="2.6" font-family="Helvetica, Arial, sans-serif" font-weight="400" fill="#6E6A5E" letter-spacing="0.0" text-anchor="start">while they are outside. They open them</text>
<text x="428.00" y="284.57" font-size="2.6" font-family="Helvetica, Arial, sans-serif" font-weight="400" fill="#6E6A5E" letter-spacing="0.0" text-anchor="start">when they come in, which is what Scenario</text>
<text x="428.00" y="288.47" font-size="2.6" font-family="Helvetica, Arial, sans-serif" font-weight="400" fill="#6E6A5E" letter-spacing="0.0" text-anchor="start">2 shows.</text>
<text x="30.00" y="360.57" font-size="2.4" font-family="Helvetica, Arial, sans-serif" font-weight="400" fill="#6E6A5E" letter-spacing="0.0" text-anchor="start">Geometry read directly from Hardware Designs/Warehouse Design V2.3dm and V3.3dm, 9 Sep 2026. Trike positions found from each vehicle's own three wheels, HGF from its rear wheel. All dimensions in millimetres.</text>
</svg>