<svg xmlns="http://www.w3.org/2000/svg" width="594.0mm" height="420.0mm" viewBox="0 0 594.0 420.0">
<rect width="594.0" height="420.0" fill="#FFFFFF"/>
<defs>
 <pattern id="hz" width="3.0" height="3.0" patternTransform="rotate(45)"
          patternUnits="userSpaceOnUse">
  <rect width="3.0" height="3.0" fill="#F5C400"/>
  <rect width="1.5" height="3.0" fill="#111"/></pattern>
 <pattern id="fire" width="3.0" height="3.0" patternTransform="rotate(45)"
          patternUnits="userSpaceOnUse">
  <rect width="3.0" height="3.0" fill="#fff"/>
  <rect width="1.5" height="3.0" fill="#C8102E"/></pattern>
 <pattern id="wall" width="1.5" height="1.5" patternTransform="rotate(45)"
          patternUnits="userSpaceOnUse">
  <rect width="1.5" height="1.5" fill="#4C4840"/>
  <rect width="0.45" height="1.5" fill="#2A2822"/></pattern>
 <marker id="arw" markerWidth="6" markerHeight="6" refX="5" refY="3"
         orient="auto"><path d="M0,0 L6,3 L0,6 z" fill="#F5C400"/></marker>
</defs>
<text x="30.00" y="16.00" font-size="2.8" font-family="Helvetica, Arial, sans-serif" font-weight="700" fill="#6E6A5E" letter-spacing="1.6" text-anchor="start">HONEYGUIDE GHANA LTD   WH2</text>
<text x="30.00" y="30.00" font-size="8.6" font-family="Helvetica, Arial, sans-serif" font-weight="700" fill="#141310" letter-spacing="0.0" text-anchor="start">AS DRAWN, 8 SEPTEMBER</text>
<text x="30.00" y="38.00" font-size="3.4" font-family="Helvetica, Arial, sans-serif" font-weight="400" fill="#6E6A5E" letter-spacing="0.0" text-anchor="start">Michael's Rhino layout: five inside plus the farm vehicle</text>
<text x="564.00" y="16.00" font-size="2.5" font-family="Helvetica, Arial, sans-serif" font-weight="400" fill="#6E6A5E" letter-spacing="0.0" text-anchor="end">v0.4.0   2 Sep 2026   1:56 at A2</text>
<polygon points="254.33,151.91 521.03,151.91 546.94,43.73 254.33,43.73 254.33,151.91" fill="url(#wall)"/>
<polygon points="254.33,151.89 217.99,151.89 217.99,96.25 254.33,96.25 254.33,151.89" fill="url(#wall)"/>
<polygon points="254.33,151.89 254.33,96.25 217.99,96.25 217.99,151.89 254.33,151.89" fill="#7E7A6E"/>
<polygon points="256.60,149.64 519.33,149.64 545.24,46.00 256.60,46.00 256.60,149.64" fill="#8C877B"/>
<line x1="290.69" y1="149.64" x2="290.69" y2="46.00" stroke="#807B70" stroke-width="0.625"/>
<line x1="324.78" y1="149.64" x2="324.78" y2="46.00" stroke="#807B70" stroke-width="0.625"/>
<line x1="358.87" y1="149.64" x2="358.87" y2="46.00" stroke="#807B70" stroke-width="0.625"/>
<line x1="392.96" y1="149.64" x2="392.96" y2="46.00" stroke="#807B70" stroke-width="0.625"/>
<line x1="427.05" y1="149.64" x2="427.05" y2="46.00" stroke="#807B70" stroke-width="0.625"/>
<line x1="461.15" y1="149.64" x2="461.15" y2="46.00" stroke="#807B70" stroke-width="0.625"/>
<line x1="495.24" y1="149.64" x2="495.24" y2="46.00" stroke="#807B70" stroke-width="0.625"/>
<line x1="529.33" y1="109.64" x2="529.33" y2="46.00" stroke="#807B70" stroke-width="0.625"/>
<line x1="256.60" y1="115.55" x2="527.85" y2="115.55" stroke="#807B70" stroke-width="0.625"/>
<line x1="256.60" y1="81.45" x2="536.37" y2="81.45" stroke="#807B70" stroke-width="0.625"/>
<line x1="256.60" y1="47.36" x2="544.90" y2="47.36" stroke="#807B70" stroke-width="0.625"/>
<polygon points="256.83,93.95 256.83,62.70 254.10,62.70 254.10,93.95 256.83,93.95" fill="#EDEBE5" stroke="#3A3730" stroke-width="0.2"/>
<text x="246.37" y="55.32" font-size="2.5" font-family="Helvetica, Arial, sans-serif" font-weight="600" fill="#141310" letter-spacing="0.0" text-anchor="middle" transform="rotate(-90 246.37 55.32)">GATE 2750 x 3500 CLEAR</text>
<polygon points="340.24,149.64 340.24,109.18 256.60,109.18 256.60,149.64 340.24,149.64" fill="#6E6A5F" stroke="#3A3730" stroke-width="0.2"/>
<polygon points="362.96,149.07 362.96,139.64 340.80,139.64 340.80,149.07 362.96,149.07" fill="#9A958A" stroke="#3A3730" stroke-width="0.2"/>
<polygon points="385.35,149.07 385.35,139.64 363.19,139.64 363.19,149.07 385.35,149.07" fill="#9A958A" stroke="#3A3730" stroke-width="0.2"/>
<polygon points="350.01,132.82 350.01,112.59 340.80,112.59 340.80,132.82 350.01,132.82" fill="#9A958A" stroke="#3A3730" stroke-width="0.2"/>
<polygon points="405.81,149.07 405.81,139.64 389.03,139.64 389.03,149.07 405.81,149.07" fill="#9A958A" stroke="#3A3730" stroke-width="0.2"/>
<polygon points="446.03,149.64 446.03,138.73 407.32,138.73 407.32,149.64 446.03,149.64" fill="#6E6A5F" stroke="#3A3730" stroke-width="0.2"/>
<polygon points="373.65,66.45 373.65,46.00 323.65,46.00 323.65,66.45 373.65,66.45" fill="none" stroke="#1F6FB2" stroke-width="1.1363636363636365"/>
<polygon points="347.05,109.18 347.05,149.64 340.24,149.64 340.24,109.18 347.05,109.18" fill="#2E9B5B" opacity="0.12"/>
<polygon points="256.60,109.18 256.60,102.36 340.24,102.36 340.24,109.18 256.60,109.18" fill="#2E9B5B" opacity="0.12"/>
<polygon points="362.96,139.64 362.96,132.82 340.80,132.82 340.80,139.64 362.96,139.64" fill="#2E9B5B" opacity="0.12"/>
<polygon points="385.35,139.64 385.35,132.82 363.19,132.82 363.19,139.64 385.35,139.64" fill="#2E9B5B" opacity="0.12"/>
<polygon points="356.83,132.82 356.83,112.59 350.01,112.59 350.01,132.82 356.83,132.82" fill="#2E9B5B" opacity="0.12"/>
<polygon points="405.81,139.64 405.81,132.82 389.03,132.82 389.03,139.64 405.81,139.64" fill="#2E9B5B" opacity="0.12"/>
<polygon points="446.03,138.73 446.03,131.91 407.32,131.91 407.32,138.73 446.03,138.73" fill="#2E9B5B" opacity="0.12"/>
<polygon points="373.65,73.27 373.65,66.45 323.65,66.45 323.65,73.27 373.65,73.27" fill="#2E9B5B" opacity="0.12"/>
<text x="298.42" y="129.41" font-size="2.6" font-family="Helvetica, Arial, sans-serif" font-weight="600" fill="#F2F0EA" letter-spacing="0.0" text-anchor="middle">OFFICE</text>
<text x="351.88" y="144.75" font-size="2.6" font-family="Helvetica, Arial, sans-serif" font-weight="600" fill="#2C2A24" letter-spacing="0.0" text-anchor="middle">FRIDGE 1</text>
<text x="374.27" y="144.75" font-size="2.6" font-family="Helvetica, Arial, sans-serif" font-weight="600" fill="#2C2A24" letter-spacing="0.0" text-anchor="middle">FRIDGE 2</text>
<text x="345.41" y="122.70" font-size="2.6" font-family="Helvetica, Arial, sans-serif" font-weight="600" fill="#2C2A24" letter-spacing="0.0" text-anchor="middle" transform="rotate(-90 345.41 122.70)">FRIDGE 3</text>
<text x="397.40" y="144.75" font-size="2.6" font-family="Helvetica, Arial, sans-serif" font-weight="600" fill="#F2F0EA" letter-spacing="0.0" text-anchor="middle">WASH AREA, SINKS</text>
<text x="426.67" y="144.75" font-size="2.6" font-family="Helvetica, Arial, sans-serif" font-weight="600" fill="#F2F0EA" letter-spacing="0.0" text-anchor="middle">FOOD STORAGE CRATES</text>
<text x="348.65" y="48.73" font-size="2.6" font-family="Helvetica, Arial, sans-serif" font-weight="600" fill="#1F6FB2" letter-spacing="0.0" text-anchor="middle">WEIGHING AND LOADING</text>
<polygon points="340.69,56.80 340.69,46.57 330.46,46.57 330.46,56.80 340.69,56.80" fill="#4A5560" stroke="#20242A" stroke-width="0.18"/>
<polygon points="343.53,53.05 343.53,50.77 341.26,50.77 341.26,53.05 343.53,53.05" fill="#4A5560" stroke="#20242A" stroke-width="0.18"/>
<polygon points="366.83,56.80 366.83,46.57 356.60,46.57 356.60,56.80 366.83,56.80" fill="#4A5560" stroke="#20242A" stroke-width="0.18"/>
<polygon points="369.67,53.05 369.67,50.77 367.40,50.77 367.40,53.05 369.67,53.05" fill="#4A5560" stroke="#20242A" stroke-width="0.18"/>
<polygon points="405.81,149.07 405.81,139.64 389.03,139.64 389.03,149.07 405.81,149.07" fill="#4A5560" stroke="#20242A" stroke-width="0.18"/>
<polygon points="396.41,147.48 396.41,141.23 390.73,141.23 390.73,147.48 396.41,147.48" fill="#EDEAE2" stroke="#20242A" stroke-width="0.18"/>
<polygon points="402.96,147.48 402.96,141.23 397.28,141.23 397.28,147.48 402.96,147.48" fill="#EDEAE2" stroke="#20242A" stroke-width="0.18"/>
<polygon points="405.81,149.07 405.81,147.70 389.03,147.70 389.03,149.07 405.81,149.07" fill="#4A5560" stroke="#20242A" stroke-width="0.18"/>
<polygon points="252.65,151.89 252.65,145.07 218.55,145.07 218.55,151.89 252.65,151.89" fill="#4A5560" stroke="#20242A" stroke-width="0.18"/>
<polygon points="242.96,150.20 242.96,146.80 239.55,146.80 239.55,150.20 242.96,150.20" fill="#4A5560" stroke="#20242A" stroke-width="0.18"/>
<polygon points="224.80,138.27 224.80,131.45 217.99,131.45 217.99,138.27 224.80,138.27" fill="#4A5560" stroke="#20242A" stroke-width="0.18"/>
<polygon points="223.10,129.18 223.10,124.07 217.99,124.07 217.99,129.18 223.10,129.18" fill="#4A5560" stroke="#20242A" stroke-width="0.18"/>
<polygon points="225.37,121.80 225.37,116.11 217.99,116.11 217.99,121.80 225.37,121.80" fill="#4A5560" stroke="#20242A" stroke-width="0.18"/>
<polygon points="224.24,113.84 224.24,107.59 217.99,107.59 217.99,113.84 224.24,113.84" fill="#4A5560" stroke="#20242A" stroke-width="0.18"/>
<polygon points="221.40,105.32 221.40,96.25 217.99,96.25 217.99,105.32 221.40,105.32" fill="#4A5560" stroke="#20242A" stroke-width="0.18"/>
<text x="348.65" y="64.64" font-size="2.4" font-family="Helvetica, Arial, sans-serif" font-weight="600" fill="#1F6FB2" letter-spacing="0.0" text-anchor="middle">TWO PLATFORM SCALES 900 x 900</text>
<text x="235.58" y="148.50" font-size="2.3" font-family="Helvetica, Arial, sans-serif" font-weight="600" fill="#F2F0EA" letter-spacing="0.0" text-anchor="middle">BENCH 3000 x 600</text>
<text x="219.78" y="121.23" font-size="2.2" font-family="Helvetica, Arial, sans-serif" font-weight="600" fill="#F2F0EA" letter-spacing="0.0" text-anchor="middle" transform="rotate(-90 219.78 121.23)">TOOLS AND PLANT</text>
<text x="236.16" y="91.68" font-size="3.0" font-family="Helvetica, Arial, sans-serif" font-weight="600" fill="#141310" letter-spacing="0.0" text-anchor="middle">WORKSHOP</text>
<polygon points="343.53,149.64 343.53,139.41 312.28,139.41 312.28,149.64 343.53,149.64" fill="url(#hz)" opacity="0.95"/>
<polygon points="271.94,57.59 271.94,47.70 258.30,47.70 258.30,57.59 271.94,57.59" fill="url(#fire)" opacity="0.95"/>
<text x="265.12" y="59.86" font-size="2.2" font-family="Helvetica, Arial, sans-serif" font-weight="600" fill="#C8102E" letter-spacing="0.0" text-anchor="middle">FIRE POINT</text>
<polygon points="469.10,147.93 469.10,138.16 455.46,138.16 455.46,147.93 469.10,147.93" fill="url(#fire)" opacity="0.95"/>
<text x="462.28" y="135.43" font-size="2.2" font-family="Helvetica, Arial, sans-serif" font-weight="600" fill="#C8102E" letter-spacing="0.0" text-anchor="middle">PANEL</text>
<polygon points="401.32,119.18 363.43,81.61 345.44,99.75 383.33,137.32 401.32,119.18" fill="none" stroke="#FFFFFF" stroke-width="0.8522727272727273"/>
<polygon points="370.63,139.83 354.69,124.02 365.65,112.97 381.59,128.78 370.63,139.83" fill="url(#hz)" opacity="0.92"/>
<polygon points="392.76,117.52 376.82,101.70 387.78,90.65 403.72,106.47 392.76,117.52" fill="url(#hz)" opacity="0.92"/>
<line x1="350.01" y1="97.33" x2="361.05" y2="86.19" stroke="#F5C400" stroke-width="2.386"/>
<line x1="402.73" y1="138.58" x2="358.15" y2="94.36" stroke="#F5C400" stroke-width="1.080"/>
<polygon points="441.03,119.18 403.14,81.61 385.15,99.75 423.04,137.32 441.03,119.18" fill="none" stroke="#FFFFFF" stroke-width="0.8522727272727273"/>
<polygon points="410.34,139.83 394.39,124.02 405.35,112.97 421.30,128.78 410.34,139.83" fill="url(#hz)" opacity="0.92"/>
<polygon points="432.47,117.52 416.52,101.70 427.48,90.65 443.43,106.47 432.47,117.52" fill="url(#hz)" opacity="0.92"/>
<line x1="389.71" y1="97.33" x2="400.75" y2="86.19" stroke="#F5C400" stroke-width="2.386"/>
<line x1="442.44" y1="138.58" x2="397.85" y2="94.36" stroke="#F5C400" stroke-width="1.080"/>
<polygon points="480.84,119.18 442.95,81.61 424.96,99.75 462.85,137.32 480.84,119.18" fill="none" stroke="#FFFFFF" stroke-width="0.8522727272727273"/>
<polygon points="450.15,139.83 434.21,124.02 445.17,112.97 461.11,128.78 450.15,139.83" fill="url(#hz)" opacity="0.92"/>
<polygon points="472.28,117.52 456.34,101.70 467.29,90.65 483.24,106.47 472.28,117.52" fill="url(#hz)" opacity="0.92"/>
<line x1="429.52" y1="97.33" x2="440.57" y2="86.19" stroke="#F5C400" stroke-width="2.386"/>
<line x1="482.25" y1="138.58" x2="437.67" y2="94.36" stroke="#F5C400" stroke-width="1.080"/>
<polygon points="520.51,119.18 482.62,81.61 464.64,99.75 502.52,137.32 520.51,119.18" fill="none" stroke="#FFFFFF" stroke-width="0.8522727272727273"/>
<polygon points="489.83,139.83 473.88,124.02 484.84,112.97 500.79,128.78 489.83,139.83" fill="url(#hz)" opacity="0.92"/>
<polygon points="511.96,117.52 496.01,101.70 506.97,90.65 522.91,106.47 511.96,117.52" fill="url(#hz)" opacity="0.92"/>
<line x1="469.20" y1="97.33" x2="480.24" y2="86.19" stroke="#F5C400" stroke-width="2.386"/>
<line x1="521.93" y1="138.58" x2="477.34" y2="94.36" stroke="#F5C400" stroke-width="1.080"/>
<polygon points="536.33,59.37 482.97,59.44 483.01,84.99 536.37,84.91 536.33,59.37" fill="none" stroke="#FFFFFF" stroke-width="0.8522727272727273"/>
<polygon points="529.13,95.64 506.67,95.68 506.65,80.11 529.11,80.08 529.13,95.64" fill="url(#hz)" opacity="0.92"/>
<polygon points="529.09,64.22 506.63,64.25 506.61,48.68 529.07,48.65 529.09,64.22" fill="url(#hz)" opacity="0.92"/>
<line x1="484.53" y1="80.05" x2="484.51" y2="64.37" stroke="#F5C400" stroke-width="2.386"/>
<line x1="551.01" y1="72.12" x2="488.22" y2="72.21" stroke="#F5C400" stroke-width="1.080"/>
<polygon points="324.52,82.47 271.16,82.54 271.19,108.09 324.55,108.01 324.52,82.47" fill="none" stroke="#FFFFFF" stroke-width="0.8522727272727273"/>

<line x1="270.88" y1="103.16" x2="270.86" y2="87.47" stroke="#F5C400" stroke-width="2.386"/>
<line x1="337.36" y1="95.22" x2="274.57" y2="95.31" stroke="#F5C400" stroke-width="1.080"/>
<polygon points="223.08,96.61 223.08,149.97 248.62,149.97 248.62,96.61 223.08,96.61" fill="none" stroke="#FFFFFF" stroke-width="0.8522727272727273"/>

<line x1="243.69" y1="148.44" x2="228.01" y2="148.44" stroke="#F5C400" stroke-width="2.386"/>
<line x1="235.85" y1="81.95" x2="235.85" y2="144.75" stroke="#F5C400" stroke-width="1.080"/>
<polygon points="147.44,102.17 147.37,48.81 121.82,48.85 121.90,102.21 147.44,102.17" fill="none" stroke="#FFFFFF" stroke-width="0.8522727272727273"/>

<line x1="126.76" y1="50.38" x2="142.44" y2="50.35" stroke="#F5C400" stroke-width="2.386"/>
<line x1="134.69" y1="116.85" x2="134.60" y2="54.06" stroke="#F5C400" stroke-width="1.080"/>
<polygon points="117.97,102.37 117.90,49.01 92.35,49.04 92.43,102.40 117.97,102.37" fill="none" stroke="#FFFFFF" stroke-width="0.8522727272727273"/>

<line x1="97.28" y1="50.57" x2="112.97" y2="50.55" stroke="#F5C400" stroke-width="2.386"/>
<line x1="105.22" y1="117.05" x2="105.13" y2="54.25" stroke="#F5C400" stroke-width="1.080"/>
<polygon points="89.12,102.11 89.04,48.75 63.50,48.78 63.57,102.14 89.12,102.11" fill="none" stroke="#FFFFFF" stroke-width="0.8522727272727273"/>

<line x1="68.43" y1="50.31" x2="84.11" y2="50.29" stroke="#F5C400" stroke-width="2.386"/>
<line x1="76.36" y1="116.78" x2="76.28" y2="53.99" stroke="#F5C400" stroke-width="1.080"/>
<polygon points="61.54,102.25 61.46,48.89 35.92,48.92 35.99,102.28 61.54,102.25" fill="none" stroke="#FFFFFF" stroke-width="0.8522727272727273"/>

<line x1="40.85" y1="50.45" x2="56.53" y2="50.43" stroke="#F5C400" stroke-width="2.386"/>
<line x1="48.79" y1="116.92" x2="48.70" y2="54.13" stroke="#F5C400" stroke-width="1.080"/>
<polygon points="383.32,135.55 399.55,119.19 367.12,87.03 365.20,88.96 363.76,87.54 356.92,89.95 353.72,93.17 351.38,100.03 352.81,101.45 383.32,135.55" fill="#D9D5CB" stroke="#101010" stroke-width="0.2" opacity="0.94"/>
<polygon points="399.55,119.19 367.12,87.03 350.89,103.39 383.32,135.55 399.55,119.19" fill="#C4BFB3" stroke="#101010" stroke-width="0.16"/>
<polygon points="370.63,139.83 354.69,124.02 365.65,112.97 381.59,128.78 370.63,139.83" fill="none" stroke="#101010" stroke-width="0.16" stroke-dasharray="1.1 0.8"/>
<polygon points="392.76,117.52 376.82,101.70 387.78,90.65 403.72,106.47 392.76,117.52" fill="none" stroke="#101010" stroke-width="0.16" stroke-dasharray="1.1 0.8"/>
<polygon points="357.26,93.48 358.90,100.22 364.02,95.06" fill="#2B2924" opacity="0.85"/>
<polygon points="423.03,135.55 439.26,119.19 406.82,87.03 404.90,88.96 403.47,87.54 396.63,89.95 393.43,93.17 391.08,100.03 392.52,101.45 423.03,135.55" fill="#D9D5CB" stroke="#101010" stroke-width="0.2" opacity="0.94"/>
<polygon points="439.26,119.19 406.82,87.03 390.60,103.39 423.03,135.55 439.26,119.19" fill="#C4BFB3" stroke="#101010" stroke-width="0.16"/>
<polygon points="410.34,139.83 394.39,124.02 405.35,112.97 421.30,128.78 410.34,139.83" fill="none" stroke="#101010" stroke-width="0.16" stroke-dasharray="1.1 0.8"/>
<polygon points="432.47,117.52 416.52,101.70 427.48,90.65 443.43,106.47 432.47,117.52" fill="none" stroke="#101010" stroke-width="0.16" stroke-dasharray="1.1 0.8"/>
<polygon points="396.97,93.48 398.60,100.22 403.72,95.06" fill="#2B2924" opacity="0.85"/>
<polygon points="462.84,135.55 479.07,119.19 446.64,87.03 444.72,88.96 443.28,87.54 436.44,89.95 433.24,93.17 430.90,100.03 432.33,101.45 462.84,135.55" fill="#D9D5CB" stroke="#101010" stroke-width="0.2" opacity="0.94"/>
<polygon points="479.07,119.19 446.64,87.03 430.41,103.39 462.84,135.55 479.07,119.19" fill="#C4BFB3" stroke="#101010" stroke-width="0.16"/>
<polygon points="450.15,139.83 434.21,124.02 445.17,112.97 461.11,128.78 450.15,139.83" fill="none" stroke="#101010" stroke-width="0.16" stroke-dasharray="1.1 0.8"/>
<polygon points="472.28,117.52 456.34,101.70 467.29,90.65 483.24,106.47 472.28,117.52" fill="none" stroke="#101010" stroke-width="0.16" stroke-dasharray="1.1 0.8"/>
<polygon points="436.78,93.48 438.42,100.22 443.54,95.06" fill="#2B2924" opacity="0.85"/>
<polygon points="502.52,135.55 518.74,119.19 486.31,87.03 484.39,88.96 482.96,87.54 476.12,89.95 472.92,93.17 470.57,100.03 472.00,101.45 502.52,135.55" fill="#D9D5CB" stroke="#101010" stroke-width="0.2" opacity="0.94"/>
<polygon points="518.74,119.19 486.31,87.03 470.08,103.39 502.52,135.55 518.74,119.19" fill="#C4BFB3" stroke="#101010" stroke-width="0.16"/>
<polygon points="489.83,139.83 473.88,124.02 484.84,112.97 500.79,128.78 489.83,139.83" fill="none" stroke="#101010" stroke-width="0.16" stroke-dasharray="1.1 0.8"/>
<polygon points="511.96,117.52 496.01,101.70 506.97,90.65 522.91,106.47 511.96,117.52" fill="none" stroke="#101010" stroke-width="0.16" stroke-dasharray="1.1 0.8"/>
<polygon points="476.45,93.48 478.09,100.22 483.21,95.06" fill="#2B2924" opacity="0.85"/>
<polygon points="535.12,83.66 535.08,60.62 489.40,60.68 489.41,63.41 487.39,63.41 484.24,69.94 484.24,74.48 487.42,81.00 489.43,81.00 535.12,83.66" fill="#D9D5CB" stroke="#101010" stroke-width="0.2" opacity="0.94"/>
<polygon points="535.08,60.62 489.40,60.68 489.44,83.73 535.12,83.66 535.08,60.62" fill="#C4BFB3" stroke="#101010" stroke-width="0.16"/>
<polygon points="529.13,95.64 506.67,95.68 506.65,80.11 529.11,80.08 529.13,95.64" fill="none" stroke="#101010" stroke-width="0.16" stroke-dasharray="1.1 0.8"/>
<polygon points="529.09,64.22 506.63,64.25 506.61,48.68 529.07,48.65 529.09,64.22" fill="none" stroke="#101010" stroke-width="0.16" stroke-dasharray="1.1 0.8"/>
<polygon points="486.97,72.21 492.88,75.84 492.87,68.56" fill="#2B2924" opacity="0.85"/>
<polygon points="320.27,84.94 270.58,85.01 270.60,105.62 320.30,105.55 320.27,84.94" fill="#D9D5CB" stroke="#101010" stroke-width="0.2" opacity="0.94"/>
<polygon points="320.27,84.94 270.58,85.01 270.60,105.62 320.30,105.55 320.27,84.94" fill="#C4BFB3" stroke="#101010" stroke-width="0.16"/>

<polygon points="273.32,95.31 279.23,98.94 279.22,91.67" fill="#2B2924" opacity="0.85"/>
<polygon points="247.37,97.86 224.33,97.86 224.33,143.54 227.05,143.54 227.05,145.56 233.58,148.72 238.12,148.72 244.64,145.56 244.64,143.54 247.37,97.86" fill="#D9D5CB" stroke="#101010" stroke-width="0.2" opacity="0.94"/>
<polygon points="224.33,97.86 224.33,143.54 247.37,143.54 247.37,97.86 224.33,97.86" fill="#C4BFB3" stroke="#101010" stroke-width="0.16"/>

<polygon points="235.85,146.00 239.49,140.09 232.21,140.09" fill="#2B2924" opacity="0.85"/>
<polygon points="123.15,100.96 146.19,100.93 146.13,55.25 143.40,55.25 143.40,53.23 136.87,50.08 132.32,50.09 125.81,53.26 125.81,55.27 123.15,100.96" fill="#D9D5CB" stroke="#101010" stroke-width="0.2" opacity="0.94"/>
<polygon points="146.19,100.93 146.13,55.25 123.08,55.28 123.15,100.96 146.19,100.93" fill="#C4BFB3" stroke="#101010" stroke-width="0.16"/>

<polygon points="134.60,52.81 130.97,58.72 138.25,58.71" fill="#2B2924" opacity="0.85"/>
<polygon points="93.67,101.15 116.72,101.12 116.66,55.44 113.93,55.44 113.92,53.43 107.40,50.27 102.85,50.28 96.33,53.45 96.34,55.47 93.67,101.15" fill="#D9D5CB" stroke="#101010" stroke-width="0.2" opacity="0.94"/>
<polygon points="116.72,101.12 116.66,55.44 93.61,55.47 93.67,101.15 116.72,101.12" fill="#C4BFB3" stroke="#101010" stroke-width="0.16"/>

<polygon points="105.13,53.00 101.50,58.92 108.77,58.91" fill="#2B2924" opacity="0.85"/>
<polygon points="64.82,100.89 87.86,100.86 87.80,55.18 85.07,55.18 85.07,53.17 78.54,50.01 74.00,50.02 67.48,53.19 67.48,55.21 64.82,100.89" fill="#D9D5CB" stroke="#101010" stroke-width="0.2" opacity="0.94"/>
<polygon points="87.86,100.86 87.80,55.18 64.76,55.21 64.82,100.89 87.86,100.86" fill="#C4BFB3" stroke="#101010" stroke-width="0.16"/>

<polygon points="76.27,52.74 72.65,58.66 79.92,58.64" fill="#2B2924" opacity="0.85"/>
<polygon points="37.24,101.03 60.29,101.00 60.22,55.32 57.50,55.32 57.49,53.30 50.97,50.15 46.42,50.16 39.90,53.33 39.91,55.35 37.24,101.03" fill="#D9D5CB" stroke="#101010" stroke-width="0.2" opacity="0.94"/>
<polygon points="60.29,101.00 60.22,55.32 37.18,55.35 37.24,101.03 60.29,101.00" fill="#C4BFB3" stroke="#101010" stroke-width="0.16"/>

<polygon points="48.70,52.88 45.07,58.79 52.34,58.78" fill="#2B2924" opacity="0.85"/>
<polygon points="378.79,113.86 378.79,103.17 366.06,103.17 366.06,113.86 378.79,113.86" fill="#1B1A16" opacity="0.6"/><text x="372.42" y="106.13" font-size="6.2" font-family="Helvetica, Arial, sans-serif" font-weight="700" fill="#FFFFFF" letter-spacing="0.0" text-anchor="middle">D1</text>
<polygon points="418.49,113.86 418.49,103.17 405.76,103.17 405.76,113.86 418.49,113.86" fill="#1B1A16" opacity="0.6"/><text x="412.13" y="106.13" font-size="6.2" font-family="Helvetica, Arial, sans-serif" font-weight="700" fill="#FFFFFF" letter-spacing="0.0" text-anchor="middle">D2</text>
<polygon points="458.30,113.86 458.30,103.17 445.58,103.17 445.58,113.86 458.30,113.86" fill="#1B1A16" opacity="0.6"/><text x="451.94" y="106.13" font-size="6.2" font-family="Helvetica, Arial, sans-serif" font-weight="700" fill="#FFFFFF" letter-spacing="0.0" text-anchor="middle">D3</text>
<polygon points="497.98,113.86 497.98,103.17 485.25,103.17 485.25,113.86 497.98,113.86" fill="#1B1A16" opacity="0.6"/><text x="491.61" y="106.13" font-size="6.2" font-family="Helvetica, Arial, sans-serif" font-weight="700" fill="#FFFFFF" letter-spacing="0.0" text-anchor="middle">D4</text>
<polygon points="514.68,77.52 514.68,66.84 501.95,66.84 501.95,77.52 514.68,77.52" fill="#1B1A16" opacity="0.6"/><text x="508.32" y="69.79" font-size="6.2" font-family="Helvetica, Arial, sans-serif" font-weight="700" fill="#FFFFFF" letter-spacing="0.0" text-anchor="middle">N1</text>
<polygon points="302.87,100.62 302.87,89.94 290.14,89.94 290.14,100.62 302.87,100.62" fill="#1B1A16" opacity="0.6"/><text x="296.50" y="92.89" font-size="6.2" font-family="Helvetica, Arial, sans-serif" font-weight="700" fill="#FFFFFF" letter-spacing="0.0" text-anchor="middle">Z1</text>
<polygon points="242.21,129.99 242.21,119.30 229.49,119.30 229.49,129.99 242.21,129.99" fill="#1B1A16" opacity="0.6"/><text x="235.85" y="122.26" font-size="6.2" font-family="Helvetica, Arial, sans-serif" font-weight="700" fill="#FFFFFF" letter-spacing="0.0" text-anchor="middle">W1</text>
<polygon points="140.99,79.50 140.99,68.82 128.27,68.82 128.27,79.50 140.99,79.50" fill="#1B1A16" opacity="0.6"/><text x="134.63" y="71.77" font-size="6.2" font-family="Helvetica, Arial, sans-serif" font-weight="700" fill="#FFFFFF" letter-spacing="0.0" text-anchor="middle">Y1</text>
<polygon points="111.52,79.70 111.52,69.01 98.80,69.01 98.80,79.70 111.52,79.70" fill="#1B1A16" opacity="0.6"/><text x="105.16" y="71.97" font-size="6.2" font-family="Helvetica, Arial, sans-serif" font-weight="700" fill="#FFFFFF" letter-spacing="0.0" text-anchor="middle">Y2</text>
<polygon points="82.67,79.43 82.67,68.75 69.94,68.75 69.94,79.43 82.67,79.43" fill="#1B1A16" opacity="0.6"/><text x="76.30" y="71.71" font-size="6.2" font-family="Helvetica, Arial, sans-serif" font-weight="700" fill="#FFFFFF" letter-spacing="0.0" text-anchor="middle">Y3</text>
<polygon points="55.09,79.57 55.09,68.89 42.36,68.89 42.36,79.57 55.09,79.57" fill="#1B1A16" opacity="0.6"/><text x="48.73" y="71.85" font-size="6.2" font-family="Helvetica, Arial, sans-serif" font-weight="700" fill="#FFFFFF" letter-spacing="0.0" text-anchor="middle">Y4</text>
<line x1="256.60" y1="40.00" x2="545.24" y2="40.00" stroke="#141310" stroke-width="0.17"/><line x1="256.60" y1="38.70" x2="256.60" y2="41.30" stroke="#141310" stroke-width="0.17"/><line x1="545.24" y1="38.70" x2="545.24" y2="41.30" stroke="#141310" stroke-width="0.17"/><text x="400.92" y="39.00" font-size="2.5" font-family="Helvetica, Arial, sans-serif" fill="#141310" text-anchor="middle">25400 clear at the north wall</text>
<line x1="256.60" y1="157.64" x2="519.33" y2="157.64" stroke="#141310" stroke-width="0.17"/><line x1="256.60" y1="156.34" x2="256.60" y2="158.94" stroke="#141310" stroke-width="0.17"/><line x1="519.33" y1="156.34" x2="519.33" y2="158.94" stroke="#141310" stroke-width="0.17"/><text x="387.96" y="156.64" font-size="2.5" font-family="Helvetica, Arial, sans-serif" fill="#141310" text-anchor="middle">23120 clear at the south wall</text>
<line x1="553.24" y1="149.64" x2="553.24" y2="46.00" stroke="#141310" stroke-width="0.17"/><line x1="551.94" y1="149.64" x2="554.54" y2="149.64" stroke="#141310" stroke-width="0.17"/><line x1="551.94" y1="46.00" x2="554.54" y2="46.00" stroke="#141310" stroke-width="0.17"/><text x="552.14" y="97.82" font-size="2.5" font-family="Helvetica, Arial, sans-serif" fill="#141310" text-anchor="middle" transform="rotate(-90 552.14 97.82)">9120</text>
<line x1="211.99" y1="151.89" x2="211.99" y2="96.25" stroke="#141310" stroke-width="0.17"/><line x1="210.69" y1="151.89" x2="213.29" y2="151.89" stroke="#141310" stroke-width="0.17"/><line x1="210.69" y1="96.25" x2="213.29" y2="96.25" stroke="#141310" stroke-width="0.17"/><text x="210.89" y="124.07" font-size="2.5" font-family="Helvetica, Arial, sans-serif" fill="#141310" text-anchor="middle" transform="rotate(-90 210.89 124.07)">4896</text>
<g transform="translate(531.60 51.91)"><path d="M0,-5.5 L2.8,3.6 L0,1.8 L-2.8,3.6 Z" fill="#141310"/><text y="8" font-size="2.8" font-family="Helvetica, Arial" text-anchor="middle" fill="#141310">N</text></g>
<line x1="30.0" y1="224.0" x2="564.0" y2="224.0" stroke="#DCD8CE" stroke-width="0.5"/>
<text x="30.00" y="236.00" font-size="2.4" font-family="Helvetica, Arial, sans-serif" font-weight="400" fill="#6E6A5E" letter-spacing="0.7" text-anchor="start">FLAGSHIPS INSIDE</text>
<text x="104.00" y="236.00" font-size="3.2" font-family="Helvetica, Arial, sans-serif" font-weight="700" fill="#141310" letter-spacing="0.0" text-anchor="end">5 + 1 farm</text>
<text x="30.00" y="243.40" font-size="2.4" font-family="Helvetica, Arial, sans-serif" font-weight="400" fill="#6E6A5E" letter-spacing="0.7" text-anchor="start">PLUS THE WORKSHOP BAY</text>
<text x="104.00" y="243.40" font-size="3.2" font-family="Helvetica, Arial, sans-serif" font-weight="700" fill="#141310" letter-spacing="0.0" text-anchor="end">1</text>
<text x="30.00" y="250.80" font-size="2.4" font-family="Helvetica, Arial, sans-serif" font-weight="400" fill="#6E6A5E" letter-spacing="0.7" text-anchor="start">EVERY VEHICLE OPENS</text>
<text x="104.00" y="250.80" font-size="3.2" font-family="Helvetica, Arial, sans-serif" font-weight="700" fill="#141310" letter-spacing="0.0" text-anchor="end">both doors, the five inside</text>
<text x="30.00" y="258.20" font-size="2.4" font-family="Helvetica, Arial, sans-serif" font-weight="400" fill="#6E6A5E" letter-spacing="0.7" text-anchor="start">STREET PITCH</text>
<text x="104.00" y="258.20" font-size="3.2" font-family="Helvetica, Arial, sans-serif" font-weight="700" fill="#141310" letter-spacing="0.0" text-anchor="end">4170 mm</text>
<text x="30.00" y="265.60" font-size="2.4" font-family="Helvetica, Arial, sans-serif" font-weight="400" fill="#6E6A5E" letter-spacing="0.7" text-anchor="start">CLEARANCE AT FITTINGS</text>
<text x="104.00" y="265.60" font-size="3.2" font-family="Helvetica, Arial, sans-serif" font-weight="700" fill="#141310" letter-spacing="0.0" text-anchor="end">600 mm minimum</text>
<text x="30.00" y="273.00" font-size="2.4" font-family="Helvetica, Arial, sans-serif" font-weight="400" fill="#6E6A5E" letter-spacing="0.7" text-anchor="start">DRIVE AISLE</text>
<text x="104.00" y="273.00" font-size="3.2" font-family="Helvetica, Arial, sans-serif" font-weight="700" fill="#141310" letter-spacing="0.0" text-anchor="end">2800 mm</text>
<text x="30.00" y="280.40" font-size="2.4" font-family="Helvetica, Arial, sans-serif" font-weight="400" fill="#6E6A5E" letter-spacing="0.7" text-anchor="start">ANY VEHICLE, ANY ORDER</text>
<text x="104.00" y="280.40" font-size="3.2" font-family="Helvetica, Arial, sans-serif" font-weight="700" fill="#141310" letter-spacing="0.0" text-anchor="end">blocked at the gate</text>
<text x="30.00" y="287.80" font-size="2.4" font-family="Helvetica, Arial, sans-serif" font-weight="400" fill="#6E6A5E" letter-spacing="0.7" text-anchor="start">TIGHTEST POINT DRIVING OUT</text>
<text x="104.00" y="287.80" font-size="3.2" font-family="Helvetica, Arial, sans-serif" font-weight="700" fill="#141310" letter-spacing="0.0" text-anchor="end">see notes</text>
<text x="126.00" y="236.00" font-size="2.9" font-family="Helvetica, Arial, sans-serif" font-weight="700" fill="#141310" letter-spacing="0.8" text-anchor="start">FLOOR MARKING SCHEDULE</text>
<rect x="126.0" y="240.6" width="9" height="4.6" fill="url(#hz)"/>
<text x="139.00" y="244.00" font-size="2.8" font-family="Helvetica, Arial, sans-serif" font-weight="600" fill="#141310" letter-spacing="0.0" text-anchor="start">Black / yellow hatch</text>
<text x="139.00" y="247.70" font-size="2.5" font-family="Helvetica, Arial, sans-serif" font-weight="400" fill="#6E6A5E" letter-spacing="0.0" text-anchor="start">Door swing. Keep clear. 1988 mm headroom.</text>
<rect x="126.0" y="250.0" width="9" height="4.6" fill="#F5C400" stroke="#BBB" stroke-width="0.2"/>
<text x="139.00" y="253.40" font-size="2.8" font-family="Helvetica, Arial, sans-serif" font-weight="600" fill="#141310" letter-spacing="0.0" text-anchor="start">Yellow 100 mm</text>
<text x="139.00" y="257.10" font-size="2.5" font-family="Helvetica, Arial, sans-serif" font-weight="400" fill="#6E6A5E" letter-spacing="0.0" text-anchor="start">Lead-in line and traffic lane edge.</text>
<rect x="126.0" y="259.40000000000003" width="9" height="4.6" fill="#FFFFFF" stroke="#BBB" stroke-width="0.2"/>
<text x="139.00" y="262.80" font-size="2.8" font-family="Helvetica, Arial, sans-serif" font-weight="600" fill="#141310" letter-spacing="0.0" text-anchor="start">White 75 mm</text>
<text x="139.00" y="266.50" font-size="2.5" font-family="Helvetica, Arial, sans-serif" font-weight="400" fill="#6E6A5E" letter-spacing="0.0" text-anchor="start">Vehicle stand outline and stand number.</text>
<rect x="126.0" y="268.8" width="9" height="4.6" fill="#1F6FB2" stroke="#BBB" stroke-width="0.2"/>
<text x="139.00" y="272.20" font-size="2.8" font-family="Helvetica, Arial, sans-serif" font-weight="600" fill="#141310" letter-spacing="0.0" text-anchor="start">Blue 100 mm</text>
<text x="139.00" y="275.90" font-size="2.5" font-family="Helvetica, Arial, sans-serif" font-weight="400" fill="#6E6A5E" letter-spacing="0.0" text-anchor="start">Weighing and loading zone, cold chain.</text>
<rect x="126.0" y="278.2" width="9" height="4.6" fill="#2E9B5B" opacity="0.25" stroke="#CCC" stroke-width="0.2"/>
<text x="139.00" y="281.60" font-size="2.8" font-family="Helvetica, Arial, sans-serif" font-weight="600" fill="#141310" letter-spacing="0.0" text-anchor="start">Green tint</text>
<text x="139.00" y="285.30" font-size="2.5" font-family="Helvetica, Arial, sans-serif" font-weight="400" fill="#6E6A5E" letter-spacing="0.0" text-anchor="start">600 mm working strip at every fitting.</text>
<rect x="126.0" y="287.59999999999997" width="9" height="4.6" fill="url(#fire)"/>
<text x="139.00" y="291.00" font-size="2.8" font-family="Helvetica, Arial, sans-serif" font-weight="600" fill="#141310" letter-spacing="0.0" text-anchor="start">Red / white hatch</text>
<text x="139.00" y="294.70" font-size="2.5" font-family="Helvetica, Arial, sans-serif" font-weight="400" fill="#6E6A5E" letter-spacing="0.0" text-anchor="start">Fire point and electrical panel.</text>
<text x="276.00" y="236.00" font-size="2.9" font-family="Helvetica, Arial, sans-serif" font-weight="700" fill="#141310" letter-spacing="0.8" text-anchor="start">DAILY SEQUENCE</text>
<text x="276.00" y="244.00" font-size="2.6" font-family="Helvetica, Arial, sans-serif" font-weight="400" fill="#141310" letter-spacing="0.0" text-anchor="start">1. Four Flagships on the diagonal at 45</text>
<text x="282.00" y="247.90" font-size="2.6" font-family="Helvetica, Arial, sans-serif" font-weight="400" fill="#6E6A5E" letter-spacing="0.0" text-anchor="start">degrees, 3494 mm apart along the row.</text>
<text x="276.00" y="253.20" font-size="2.6" font-family="Helvetica, Arial, sans-serif" font-weight="400" fill="#141310" letter-spacing="0.0" text-anchor="start">2. A fifth stands nose-west against the east</text>
<text x="282.00" y="257.10" font-size="2.6" font-family="Helvetica, Arial, sans-serif" font-weight="400" fill="#6E6A5E" letter-spacing="0.0" text-anchor="start">wall, and the farm vehicle west of the crates.</text>
<text x="276.00" y="262.40" font-size="2.6" font-family="Helvetica, Arial, sans-serif" font-weight="400" fill="#141310" letter-spacing="0.0" text-anchor="start">3. Five more outside: one in the workshop bay</text>
<text x="282.00" y="266.30" font-size="2.6" font-family="Helvetica, Arial, sans-serif" font-weight="400" fill="#6E6A5E" letter-spacing="0.0" text-anchor="start">and four in the yard, doors shut.</text>
<text x="276.00" y="271.60" font-size="2.6" font-family="Helvetica, Arial, sans-serif" font-weight="400" fill="#141310" letter-spacing="0.0" text-anchor="start">4. Read straight out of the Rhino model of 8</text>
<text x="282.00" y="275.50" font-size="2.6" font-family="Helvetica, Arial, sans-serif" font-weight="400" fill="#6E6A5E" letter-spacing="0.0" text-anchor="start">Sep: every axle centre and heading</text>
<text x="276.00" y="280.80" font-size="2.6" font-family="Helvetica, Arial, sans-serif" font-weight="400" fill="#141310" letter-spacing="0.0" text-anchor="start">5. comes from the vehicle's own three wheels,</text>
<text x="282.00" y="284.70" font-size="2.6" font-family="Helvetica, Arial, sans-serif" font-weight="400" fill="#6E6A5E" letter-spacing="0.0" text-anchor="start">nothing fitted or rounded.</text>
<text x="408.00" y="236.00" font-size="2.9" font-family="Helvetica, Arial, sans-serif" font-weight="700" fill="#141310" letter-spacing="0.8" text-anchor="start">NOTES</text>
<text x="408.00" y="244.00" font-size="2.6" font-family="Helvetica, Arial, sans-serif" font-weight="400" fill="#141310" letter-spacing="0.0" text-anchor="start">Five Flagships inside plus the farm</text>
<text x="412.00" y="247.90" font-size="2.6" font-family="Helvetica, Arial, sans-serif" font-weight="400" fill="#6E6A5E" letter-spacing="0.0" text-anchor="start">vehicle, ten Flagships in the fleet. This</text>
<text x="412.00" y="251.80" font-size="2.6" font-family="Helvetica, Arial, sans-serif" font-weight="400" fill="#6E6A5E" letter-spacing="0.0" text-anchor="start">is your layout as the model has it, not a</text>
<text x="412.00" y="255.70" font-size="2.6" font-family="Helvetica, Arial, sans-serif" font-weight="400" fill="#6E6A5E" letter-spacing="0.0" text-anchor="start">redesign of it.</text>
<text x="408.00" y="261.60" font-size="2.6" font-family="Helvetica, Arial, sans-serif" font-weight="400" fill="#141310" letter-spacing="0.0" text-anchor="start">The gate is blocked. The farm vehicle's</text>
<text x="412.00" y="265.50" font-size="2.6" font-family="Helvetica, Arial, sans-serif" font-weight="400" fill="#6E6A5E" letter-spacing="0.0" text-anchor="start">body reaches v = 5693 and the gate opening</text>
<text x="412.00" y="269.40" font-size="2.6" font-family="Helvetica, Arial, sans-serif" font-weight="400" fill="#6E6A5E" letter-spacing="0.0" text-anchor="start">ends at 7650, so 1957 mm is left where a</text>
<text x="412.00" y="273.30" font-size="2.6" font-family="Helvetica, Arial, sans-serif" font-weight="400" fill="#6E6A5E" letter-spacing="0.0" text-anchor="start">Flagship needs 2028. Move it about 300 mm</text>
<text x="412.00" y="277.20" font-size="2.6" font-family="Helvetica, Arial, sans-serif" font-weight="400" fill="#6E6A5E" letter-spacing="0.0" text-anchor="start">south and the building works: with it out</text>
<text x="412.00" y="281.10" font-size="2.6" font-family="Helvetica, Arial, sans-serif" font-weight="400" fill="#6E6A5E" letter-spacing="0.0" text-anchor="start">of the way, all five inside vehicles drive</text>
<text x="412.00" y="285.00" font-size="2.6" font-family="Helvetica, Arial, sans-serif" font-weight="400" fill="#6E6A5E" letter-spacing="0.0" text-anchor="start">out in any order.</text>
<text x="408.00" y="290.90" font-size="2.6" font-family="Helvetica, Arial, sans-serif" font-weight="400" fill="#141310" letter-spacing="0.0" text-anchor="start">Both doors will not open. At 3494 mm on a</text>
<text x="412.00" y="294.80" font-size="2.6" font-family="Helvetica, Arial, sans-serif" font-weight="400" fill="#6E6A5E" letter-spacing="0.0" text-anchor="start">45 degree row each door passes 0.63 m2</text>
<text x="412.00" y="298.70" font-size="2.6" font-family="Helvetica, Arial, sans-serif" font-weight="400" fill="#6E6A5E" letter-spacing="0.0" text-anchor="start">into the next vehicle's body; both doors</text>
<text x="412.00" y="302.60" font-size="2.6" font-family="Helvetica, Arial, sans-serif" font-weight="400" fill="#6E6A5E" letter-spacing="0.0" text-anchor="start">open needs 4600 mm at that angle, which is</text>
<text x="412.00" y="306.50" font-size="2.6" font-family="Helvetica, Arial, sans-serif" font-weight="400" fill="#6E6A5E" letter-spacing="0.0" text-anchor="start">1106 mm more per stand. D4 and N1's doors</text>
<text x="412.00" y="310.40" font-size="2.6" font-family="Helvetica, Arial, sans-serif" font-weight="400" fill="#6E6A5E" letter-spacing="0.0" text-anchor="start">overlap by 0.11 m2 as well.</text>
<text x="408.00" y="316.30" font-size="2.6" font-family="Helvetica, Arial, sans-serif" font-weight="400" fill="#141310" letter-spacing="0.0" text-anchor="start">Three vehicles stand inside a 600 mm</text>
<text x="412.00" y="320.20" font-size="2.6" font-family="Helvetica, Arial, sans-serif" font-weight="400" fill="#6E6A5E" letter-spacing="0.0" text-anchor="start">working strip: D1 is 359 mm from Fridge 2,</text>
<text x="412.00" y="324.10" font-size="2.6" font-family="Helvetica, Arial, sans-serif" font-weight="400" fill="#6E6A5E" letter-spacing="0.0" text-anchor="start">D2 is 279 mm from the crate rack, and the</text>
<text x="412.00" y="328.00" font-size="2.6" font-family="Helvetica, Arial, sans-serif" font-weight="400" fill="#6E6A5E" letter-spacing="0.0" text-anchor="start">farm vehicle is 314 mm from the office.</text>
<text x="412.00" y="331.90" font-size="2.6" font-family="Helvetica, Arial, sans-serif" font-weight="400" fill="#6E6A5E" letter-spacing="0.0" text-anchor="start">N1's body is 60 mm off the east wall.</text>
<text x="408.00" y="337.80" font-size="2.6" font-family="Helvetica, Arial, sans-serif" font-weight="400" fill="#141310" letter-spacing="0.0" text-anchor="start">The model shows both doors open on the</text>
<text x="412.00" y="341.70" font-size="2.6" font-family="Helvetica, Arial, sans-serif" font-weight="400" fill="#6E6A5E" letter-spacing="0.0" text-anchor="start">four yard vehicles too. Drawn here with</text>
<text x="412.00" y="345.60" font-size="2.6" font-family="Helvetica, Arial, sans-serif" font-weight="400" fill="#6E6A5E" letter-spacing="0.0" text-anchor="start">them shut, as instructed.</text>
<text x="30.00" y="408.00" font-size="2.4" font-family="Helvetica, Arial, sans-serif" font-weight="400" fill="#6E6A5E" letter-spacing="0.0" text-anchor="start">Geometry read directly from Hardware Designs/Warehouse Design.3dm saved 31 Aug 2026 18:43. All dimensions in millimetres.</text>
</svg>